<svg width="1200" height="675" viewBox="0 0 1200 675" fill="none" xmlns="http://www.w3.org/2000/svg">
  <defs>
    <linearGradient id="bg" x1="0" y1="0" x2="1200" y2="675" gradientUnits="userSpaceOnUse">
      <stop stop-color="#0F172A"/>
      <stop offset="1" stop-color="#1E293B"/>
    </linearGradient>
    <linearGradient id="accent" x1="200" y1="140" x2="1000" y2="540" gradientUnits="userSpaceOnUse">
      <stop stop-color="#38BDF8"/>
      <stop offset="1" stop-color="#22C55E"/>
    </linearGradient>
  </defs>
  <rect width="1200" height="675" rx="40" fill="url(#bg)"/>
  <circle cx="1030" cy="125" r="170" fill="#38BDF8" fill-opacity="0.08"/>
  <circle cx="185" cy="545" r="220" fill="#22C55E" fill-opacity="0.08"/>
  <rect x="150" y="120" width="900" height="435" rx="28" fill="#0B1220" stroke="#334155" stroke-width="2"/>
  <rect x="190" y="165" width="350" height="24" rx="12" fill="#E2E8F0" fill-opacity="0.9"/>
  <rect x="190" y="215" width="510" height="16" rx="8" fill="#94A3B8"/>
  <rect x="190" y="245" width="430" height="16" rx="8" fill="#94A3B8"/>
  <rect x="190" y="275" width="470" height="16" rx="8" fill="#94A3B8"/>
  <rect x="190" y="330" width="280" height="150" rx="20" fill="url(#accent)" fill-opacity="0.16" stroke="url(#accent)" stroke-width="2"/>
  <rect x="520" y="330" width="490" height="150" rx="20" fill="#111827" stroke="#334155" stroke-width="2"/>
  <rect x="550" y="360" width="110" height="18" rx="9" fill="#E2E8F0" fill-opacity="0.9"/>
  <rect x="550" y="395" width="390" height="14" rx="7" fill="#94A3B8"/>
  <rect x="550" y="422" width="340" height="14" rx="7" fill="#94A3B8"/>
  <rect x="550" y="449" width="260" height="14" rx="7" fill="#94A3B8"/>
  <text x="600" y="620" fill="#E2E8F0" font-family="Arial, Helvetica, sans-serif" font-size="34" font-weight="700" text-anchor="middle">Quality Documentation App</text>
  <text x="600" y="655" fill="#94A3B8" font-family="Arial, Helvetica, sans-serif" font-size="18" text-anchor="middle">Mobile app + admin dashboard</text>
</svg>